<?xml version="1.0" encoding="UTF-8"?>
<svg width="1440px" height="900px" viewBox="0 0 1440 900" version="1.1" xmlns="http://www.w3.org/2000/svg" xmlns:xlink="http://www.w3.org/1999/xlink">
    <!-- Generator: Sketch 56.2 (81672) - https://sketch.com -->
    <title>Apple TV备份 3</title>
    <desc>Created with Sketch.</desc>
    <defs>
        <rect id="path-1" x="0" y="0" width="342.4" height="342.4"></rect>
        <rect id="path-3" x="0" y="0" width="960" height="484.8" rx="3.2"></rect>
        <path d="M3.2,0 L509.6,0 L509.6,484.8 L3.2,484.8 C1.4326888,484.8 4.55135326e-14,483.367311 0,481.6 L0,3.2 C-2.164332e-16,1.4326888 1.4326888,1.72000398e-14 3.2,0 Z" id="path-5"></path>
    </defs>
    <g id="Apple-TV备份-3" stroke="none" stroke-width="1" fill="none" fill-rule="evenodd">
        <rect fill="#2B2B2B" x="0" y="0" width="1440" height="900"></rect>
        <rect id="矩形备份-3" fill="#001469" x="-323" y="-94" width="1474" height="1080"></rect>
        <polygon id="矩形备份-2" fill="#2F53EA" points="482 958 1440 0 1440 94.0259259 1440 958 828.544695 958"></polygon>
        <path d="M878.200491,938.43988 C877.734586,948.52588 875.005753,957.43394 870.013912,965.164329 C865.02207,972.894717 858.016957,978.88319 848.998363,983.129927 C839.979769,987.376663 829.680091,989.5 818.099018,989.5 C798.996904,989.5 783.955047,983.295876 772.972995,970.887442 C761.990943,958.479007 756.5,940.96148 756.5,918.334335 L756.5,911.168003 C756.5,896.967976 758.979244,884.543139 763.937807,873.89312 C768.89637,863.2431 776.034596,855.01517 785.3527,849.209085 C794.670805,843.402999 805.453021,840.5 817.699673,840.5 C835.337513,840.5 849.514131,845.12821 860.229951,854.38477 C870.945771,863.641329 877.035726,876.397937 878.5,892.654977 L843.557283,892.654977 C843.291052,883.829727 841.061396,877.492894 836.868249,873.644289 C832.675102,869.795683 826.28564,867.871409 817.699673,867.871409 C808.980589,867.871409 802.591128,871.122769 798.531097,877.625585 C794.471065,884.1284 792.341245,894.512843 792.141571,908.779225 L792.141571,919.031062 C792.141571,934.491839 794.08836,945.539824 797.981997,952.175351 C801.875633,958.810877 808.58124,962.128591 818.099018,962.128591 C826.152523,962.128591 832.309035,960.237494 836.56874,956.455244 C840.828445,952.672994 843.091379,946.667891 843.35761,938.43988 L878.200491,938.43988 Z M952.639442,842.5 L987.5,842.5 L987.5,941.993902 C987.5,951.222946 985.358587,959.455926 981.075697,966.693089 C976.792807,973.930253 970.816771,979.54063 963.14741,983.52439 C955.478049,987.50815 946.928998,989.5 937.5,989.5 C921.696468,989.5 909.412394,985.5163 900.64741,977.54878 C891.882426,969.581261 887.5,958.294111 887.5,943.686992 L922.559761,943.686992 C922.559761,950.326591 923.705168,955.140229 925.996016,958.128049 C928.286864,961.115869 932.121514,962.609756 937.5,962.609756 C942.347302,962.609756 946.082324,960.800492 948.705179,957.181911 C951.328034,953.563329 952.639442,948.50071 952.639442,941.993902 L952.639442,842.5 Z M1108.5,934.512853 C1108.5,952.177895 1104.84069,965.758521 1097.52196,975.255141 C1090.20322,984.751761 1079.89062,989.5 1066.58383,989.5 C1055.60573,989.5 1046.75685,985.150215 1040.03693,976.450514 L1038.63972,987.507712 L1008.5,987.507712 L1008.5,834.5 L1042.13273,834.5 L1042.13273,888.391388 C1048.38692,881.285526 1056.47068,877.732648 1066.38423,877.732648 C1079.82409,877.732648 1090.20322,882.547295 1097.52196,892.176735 C1104.84069,901.806175 1108.5,915.353597 1108.5,932.819409 L1108.5,934.512853 Z M1074.5,932.256219 C1074.5,921.907908 1073.10399,914.528214 1070.31193,910.116915 C1067.51986,905.705616 1063.23092,903.5 1057.44495,903.5 C1049.77519,903.5 1044.46026,906.385543 1041.5,912.156716 L1041.5,954.942786 C1044.39298,960.647624 1049.77519,963.5 1057.64679,963.5 C1065.65295,963.5 1070.73241,959.652609 1072.88532,951.957711 C1073.96178,948.176598 1074.5,941.6095 1074.5,932.256219 Z M1188.39818,910.441016 L1177.26444,909.642468 C1166.63217,909.642468 1159.81157,912.969719 1156.80243,919.624319 L1156.80243,988 L1123,988 L1123,879.99637 L1154.69605,879.99637 L1155.79939,893.871143 C1161.48331,883.290328 1169.40724,878 1179.57143,878 C1183.18239,878 1186.32521,878.39927 1189,879.197822 L1188.39818,910.441016 Z M1262.50301,988.02139 C1261.31023,985.844909 1260.25,982.646189 1259.32229,978.425134 C1253.15961,986.14175 1244.54524,990 1233.47892,990 C1223.34031,990 1214.72594,986.949674 1207.63554,980.84893 C1200.54515,974.748187 1197,967.081151 1197,957.847594 C1197,946.239692 1201.30719,937.467944 1209.92169,931.532086 C1218.53619,925.596227 1231.06016,922.628342 1247.49398,922.628342 L1257.83133,922.628342 L1257.83133,916.989305 C1257.83133,907.162161 1253.55727,902.248663 1245.00904,902.248663 C1237.05719,902.248663 1233.08133,906.13989 1233.08133,913.92246 L1199.58434,913.92246 C1199.58434,903.567684 1204.00749,895.158678 1212.85392,888.695187 C1221.70035,882.231697 1232.98186,879 1246.6988,879 C1260.41573,879 1271.24996,882.330626 1279.20181,888.991979 C1287.15365,895.653331 1291.22891,904.787821 1291.42771,916.395722 L1291.42771,963.783422 C1291.56024,973.610566 1293.08432,981.129207 1296,986.339572 L1296,988.02139 L1262.50301,988.02139 Z M1241.24088,966 C1245.53287,966 1249.09244,965.103457 1251.91971,963.310345 C1254.74697,961.517232 1256.77372,959.49171 1258,957.233716 L1258,940 L1247.9854,940 C1235.99507,940 1230,945.246435 1230,955.739464 C1230,958.794396 1231.05595,961.26819 1233.16788,963.16092 C1235.27982,965.053649 1237.97079,966 1241.24088,966 Z M1339.93795,880.49637 L1341.03231,893.173321 C1348.46072,883.391058 1358.7078,878.5 1371.77385,878.5 C1382.98279,878.5 1391.35621,881.860523 1396.89436,888.58167 C1402.43251,895.302816 1405.30102,905.417658 1405.5,918.926497 L1405.5,988.5 L1371.87333,988.5 L1371.87333,920.323956 C1371.87333,914.867184 1370.77899,910.857847 1368.59026,908.295826 C1366.40153,905.733804 1362.42208,904.452813 1356.65179,904.452813 C1350.08561,904.452813 1345.21079,907.048068 1342.02718,912.238657 L1342.02718,988.5 L1308.5,988.5 L1308.5,880.49637 L1339.93795,880.49637 Z M1420.5,932.819409 C1420.5,915.752057 1424.1889,902.304248 1431.5668,892.475578 C1438.9447,882.646909 1449.24703,877.732648 1462.47408,877.732648 C1472.11188,877.732648 1480.2208,881.517957 1486.8011,889.088689 L1486.8011,834.5 L1520.5,834.5 L1520.5,987.507712 L1490.29063,987.507712 L1488.59571,975.952442 C1481.68308,984.984193 1472.90949,989.5 1462.27468,989.5 C1449.44643,989.5 1439.27704,984.585739 1431.7662,974.757069 C1424.25536,964.9284 1420.5,950.949319 1420.5,932.819409 Z M1454.5,934.795681 C1454.5,953.931989 1460.13409,963.5 1471.40244,963.5 C1478.91467,963.5 1484.28047,960.377108 1487.5,954.131229 L1487.5,913.068106 C1484.41462,906.689337 1479.11589,903.5 1471.60366,903.5 C1461.14019,903.5 1455.47257,911.872009 1454.60061,928.616279 L1454.5,934.795681 Z M1575.5,987.5 L1541.5,987.5 L1541.5,880.5 L1575.5,880.5 L1575.5,987.5 Z M1539,852.5 C1539,847.670708 1540.71478,843.71343 1544.14439,840.628049 C1547.57399,837.542668 1552.02582,836 1557.5,836 C1562.97418,836 1567.42601,837.542668 1570.85561,840.628049 C1574.28522,843.71343 1576,847.670708 1576,852.5 C1576,857.329292 1574.28522,861.28657 1570.85561,864.371951 C1567.42601,867.457333 1562.97418,869 1557.5,869 C1552.02582,869 1547.57399,867.457333 1544.14439,864.371951 C1540.71478,861.28657 1539,857.329292 1539,852.5 Z M1626.93795,880.49637 L1628.03231,893.173321 C1635.46072,883.391058 1645.7078,878.5 1658.77385,878.5 C1669.98279,878.5 1678.35621,881.860523 1683.89436,888.58167 C1689.43251,895.302816 1692.30102,905.417658 1692.5,918.926497 L1692.5,988.5 L1658.87333,988.5 L1658.87333,920.323956 C1658.87333,914.867184 1657.77899,910.857847 1655.59026,908.295826 C1653.40153,905.733804 1649.42208,904.452813 1643.65179,904.452813 C1637.08561,904.452813 1632.21079,907.048068 1629.02718,912.238657 L1629.02718,988.5 L1595.5,988.5 L1595.5,880.49637 L1626.93795,880.49637 Z M1707.5,933.510471 C1707.5,922.634326 1709.307,913.018366 1712.92105,904.662304 C1716.53511,896.306241 1721.72186,889.856916 1728.48148,885.314136 C1735.2411,880.771356 1743.10489,878.5 1752.0731,878.5 C1763.38375,878.5 1772.21797,882.280067 1778.57602,889.840314 L1779.7807,880.489529 L1810.5,880.489529 L1810.5,984.044503 C1810.5,993.527971 1808.27471,1001.76785 1803.82407,1008.7644 C1799.37343,1015.76094 1792.93182,1021.13262 1784.49903,1024.87958 C1776.06623,1028.62655 1766.29505,1030.5 1755.18519,1030.5 C1747.22088,1030.5 1739.50767,1029.00787 1732.04532,1026.02356 C1724.58297,1023.03925 1718.87754,1019.15971 1714.92885,1014.38482 L1729.08382,994.688482 C1735.37495,1002.04978 1743.67376,1005.73037 1753.98051,1005.73037 C1768.97213,1005.73037 1776.46784,998.103916 1776.46784,982.850785 L1776.46784,979.468586 C1769.97593,986.564608 1761.7775,990.112565 1751.87232,990.112565 C1738.62079,990.112565 1727.91265,985.089055 1719.74756,975.041885 C1711.58248,964.994714 1707.5,951.54895 1707.5,934.704188 L1707.5,933.510471 Z M1741.5,934.795681 C1741.5,943.632935 1743.17143,950.62622 1746.51433,955.775748 C1749.85723,960.925275 1754.53722,963.5 1760.55444,963.5 C1767.84197,963.5 1773.1571,961.074775 1776.5,956.224252 L1776.5,910.875415 C1773.22396,905.958447 1767.97568,903.5 1760.75501,903.5 C1754.73779,903.5 1750.02437,906.174392 1746.61461,911.523256 C1743.20485,916.87212 1741.5,924.629517 1741.5,934.795681 Z" id="CJbranding备份-2" fill="#FFFFFF" fill-rule="nonzero" opacity="0.05" transform="translate(1283.500000, 932.500000) rotate(-270.000000) translate(-1283.500000, -932.500000) "></path>
        <ellipse id="椭圆形" fill="#2852FF" opacity="0.458705357" cx="1300.5" cy="761" rx="139.5" ry="139"></ellipse>
        <rect id="矩形备份-3" fill="#0029D4" x="-181" y="-57" width="1332" height="773" rx="3.2"></rect>
        <path d="M-189.089221,348.04747 C-189.575073,358.617621 -192.420733,367.953289 -197.626288,376.054754 C-202.831842,384.156219 -210.13686,390.432152 -219.541562,394.882742 C-228.946263,399.333332 -239.686895,401.558594 -251.763781,401.558594 C-271.683702,401.558594 -287.369537,395.056657 -298.821757,382.05259 C-310.273976,369.048522 -316,350.690113 -316,326.976813 L-316,319.46648 C-316,304.584819 -313.414613,291.563562 -308.243763,280.402316 C-303.072912,269.241071 -295.629081,260.618182 -285.912047,254.533391 C-276.195012,248.4486 -264.951183,245.40625 -252.180224,245.40625 C-233.787265,245.40625 -219.003713,250.256625 -207.829123,259.957521 C-196.654533,269.658416 -190.303852,283.027371 -188.77689,300.064786 L-225.215587,300.064786 C-225.493217,290.815903 -227.81833,284.174888 -232.190995,280.141541 C-236.563661,276.108194 -243.22667,274.09155 -252.180224,274.09155 C-261.272592,274.09155 -267.935601,277.498982 -272.169452,284.313948 C-276.403303,291.128914 -278.624306,302.011834 -278.832528,316.963035 L-278.832528,327.706984 C-278.832528,343.909914 -276.802393,355.488228 -272.74206,362.442275 C-268.681728,369.396322 -261.689038,372.873293 -251.763781,372.873293 C-243.365487,372.873293 -236.9454,370.89142 -232.503327,366.927613 C-228.061254,362.963806 -225.701438,356.670445 -225.423808,348.04747 L-189.089221,348.04747 Z M-110.896607,247.007812 L-74.3561047,247.007812 L-74.3561047,351.612305 C-74.3561047,361.315406 -76.6007131,369.97128 -81.0899972,377.580187 C-85.5792814,385.189093 -91.8433048,391.087653 -99.8822555,395.276042 C-107.921206,399.464431 -116.88224,401.558594 -126.765625,401.558594 C-143.330736,401.558594 -156.206784,397.370268 -165.394156,388.99349 C-174.581528,380.616712 -179.175145,368.749787 -179.175145,353.392361 L-142.42584,353.392361 C-142.42584,360.373009 -141.225236,365.433904 -138.823991,368.575195 C-136.422746,371.716487 -132.403302,373.287109 -126.765625,373.287109 C-121.68473,373.287109 -117.769715,371.384911 -115.020464,367.580458 C-112.271212,363.776005 -110.896607,358.45334 -110.896607,351.612305 L-110.896607,247.007812 Z M52.0668605,343.889992 C52.0668605,362.416471 48.2312054,376.659359 40.5597801,386.619083 C32.8883549,396.578807 22.0787815,401.558594 8.13073562,401.558594 C-3.37640223,401.558594 -12.6517136,396.996691 -19.6954768,387.872748 L-21.1600143,399.469152 L-52.7521802,399.469152 L-52.7521802,239 L-17.4986705,239 L-17.4986705,295.519408 C-10.943089,288.067028 -2.4697782,284.340893 7.92151598,284.340893 C22.0090423,284.340893 32.8883549,289.390328 40.5597801,299.489348 C48.2312054,309.588369 52.0668605,323.796433 52.0668605,342.113967 L52.0668605,343.889992 Z M16.0603198,341.389776 C16.0603198,330.478911 14.6048202,322.698042 11.6937773,318.046937 C8.78273449,313.395831 4.31101889,311.070312 -1.72150363,311.070312 C-9.71810324,311.070312 -15.2595234,314.11272 -18.3459302,320.197625 L-18.3459302,365.30963 C-15.329669,371.324594 -9.7181043,374.332031 -1.51106785,374.332031 C6.83625982,374.332031 12.132174,370.275488 14.3768335,362.162281 C15.4991633,358.175619 16.0603198,351.25152 16.0603198,341.389776 Z M135.454652,318.652301 L123.846465,317.815187 C112.761113,317.815187 105.649862,321.303128 102.512498,328.279116 L102.512498,399.957031 L67.2696221,399.957031 L67.2696221,286.737317 L100.316355,286.737317 L101.466716,301.282179 C107.392847,290.190358 115.654448,284.644531 126.251765,284.644531 C130.016601,284.644531 133.293354,285.063084 136.082122,285.900203 L135.454652,318.652301 Z M212.107177,399.474564 C210.853931,397.18212 209.739952,393.812973 208.765205,389.36702 C202.290101,397.494777 193.239015,401.558594 181.611678,401.558594 C170.959087,401.558594 161.908002,398.345747 154.458151,391.919957 C147.0083,385.494167 143.28343,377.418632 143.28343,367.693112 C143.28343,355.466744 147.808973,346.227638 156.860194,339.975518 C165.911415,333.723398 179.0703,330.597385 196.337244,330.597385 L207.198655,330.597385 L207.198655,324.6579 C207.198655,314.307168 202.707924,309.131879 193.726328,309.131879 C185.371355,309.131879 181.193931,313.23043 181.193931,321.427654 L145.998783,321.427654 C145.998783,310.521178 150.646167,301.664141 159.941075,294.856276 C169.235982,288.048412 181.089423,284.644531 195.501751,284.644531 C209.91408,284.644531 221.29756,288.152613 229.652533,295.168881 C238.007506,302.185149 242.289366,311.806323 242.49824,324.032691 L242.49824,373.945201 C242.63749,384.295933 244.238835,392.215167 247.302326,397.703139 L247.302326,399.474564 L212.107177,399.474564 Z M190.05397,376.734375 C194.469393,376.734375 198.131335,375.795537 201.039907,373.917834 C203.948479,372.040131 206.033509,369.919053 207.295058,367.554538 L207.295058,349.507812 L196.992457,349.507812 C184.657308,349.507812 178.489826,355.001751 178.489826,365.989793 C178.489826,369.188843 179.576143,371.779339 181.748812,373.76136 C183.92148,375.74338 186.689838,376.734375 190.05397,376.734375 Z M293.8396,286.737317 L294.986064,300.026507 C302.768167,289.771805 313.503137,284.644531 327.191299,284.644531 C338.933935,284.644531 347.706039,288.167352 353.507875,295.2131 C359.30971,302.258847 362.314807,312.86219 362.523256,327.023445 L362.523256,399.957031 L327.295523,399.957031 L327.295523,328.488395 C327.295523,322.768085 326.14907,318.565115 323.856129,315.87936 C321.563188,313.193605 317.394268,311.850747 311.349242,311.850747 C304.47042,311.850747 299.363492,314.571342 296.028305,320.012612 L296.028305,399.957031 L260.904797,399.957031 L260.904797,286.737317 L293.8396,286.737317 Z M377.726017,342.113967 C377.726017,324.214323 381.592683,310.11073 389.326131,299.802765 C397.059578,289.494799 407.858374,284.340893 421.722843,284.340893 C431.825094,284.340893 440.324792,288.310793 447.222191,296.250713 L447.222191,239 L482.545058,239 L482.545058,399.469152 L450.879884,399.469152 L449.10329,387.350388 C441.857538,396.822572 432.661144,401.558594 421.513832,401.558594 C408.067387,401.558594 397.407931,396.404688 389.535142,386.096722 C381.662353,375.788757 377.726017,361.127985 377.726017,342.113967 Z M412.932413,344.067289 C412.932413,364.243885 418.806592,374.332031 430.555126,374.332031 C438.387482,374.332031 443.981939,371.039372 447.338663,364.453956 L447.338663,321.15856 C444.121802,314.433028 438.597277,311.070312 430.76492,311.070312 C419.855567,311.070312 413.946423,319.897441 413.03731,337.551962 L412.932413,344.067289 Z M539.355378,399.15625 L504.148983,399.15625 L504.148983,286.246094 L539.355378,286.246094 L539.355378,399.15625 Z M501.748547,257.017578 C501.748547,251.97849 503.565614,247.8493 507.199804,244.629883 C510.833994,241.410466 515.551381,239.800781 521.352108,239.800781 C527.152834,239.800781 531.870221,241.410466 535.504411,244.629883 C539.138601,247.8493 540.955669,251.97849 540.955669,257.017578 C540.955669,262.056666 539.138601,266.185856 535.504411,269.405273 C531.870221,272.624691 527.152834,274.234375 521.352108,274.234375 C515.551381,274.234375 510.833994,272.624691 507.199804,269.405273 C503.565614,266.185856 501.748547,262.056666 501.748547,257.017578 Z M593.09396,286.737317 L594.240425,300.026507 C602.022527,289.771805 612.757498,284.644531 626.44566,284.644531 C638.188296,284.644531 646.9604,288.167352 652.762235,295.2131 C658.56407,302.258847 661.569167,312.86219 661.777616,327.023445 L661.777616,399.957031 L626.549884,399.957031 L626.549884,328.488395 C626.549884,322.768085 625.403431,318.565115 623.11049,315.87936 C620.817549,313.193605 616.648628,311.850747 610.603602,311.850747 C603.72478,311.850747 598.617852,314.571342 595.282665,320.012612 L595.282665,399.957031 L560.159157,399.957031 L560.159157,286.737317 L593.09396,286.737317 Z M677.780523,342.317027 C677.780523,330.914572 679.661548,320.833284 683.423654,312.072861 C687.185759,303.312438 692.584997,296.551023 699.621528,291.788412 C706.658059,287.025801 714.843999,284.644531 724.179595,284.644531 C735.953593,284.644531 745.149713,288.60752 751.768232,296.533617 L753.022261,286.730336 L785,286.730336 L785,395.296463 C785,405.238848 782.683553,413.877469 778.050589,421.212585 C773.417626,428.547701 766.712121,434.179317 757.933875,438.107602 C749.155628,442.035887 738.984162,444 727.41917,444 C719.128604,444 711.099415,442.435662 703.331363,439.30694 C695.563312,436.178217 689.624151,432.110939 685.513702,427.104983 L700.248542,406.455518 C706.797393,414.173033 715.436173,418.031733 726.165141,418.031733 C741.770913,418.031733 749.573682,410.036229 749.573682,394.044981 L749.573682,390.499113 C742.815825,397.93852 734.281547,401.658167 723.97059,401.658167 C710.176203,401.658167 699.02939,396.391563 690.529818,385.858198 C682.030246,375.324832 677.780523,361.22841 677.780523,343.56851 L677.780523,342.317027 Z M712.986919,344.067289 C712.986919,353.384953 714.744622,360.758407 718.260083,366.187873 C721.775543,371.617339 726.697114,374.332031 733.024943,374.332031 C740.688646,374.332031 746.278144,371.774966 749.793605,366.66076 L749.793605,318.84667 C746.348453,313.662406 740.829263,311.070312 733.235869,311.070312 C726.90804,311.070312 721.951316,313.89009 718.365546,319.529728 C714.779777,325.169367 712.986919,333.348472 712.986919,344.067289 Z" id="CJbranding备份-3" fill="#000000" fill-rule="nonzero" opacity="0.05" transform="translate(234.500000, 341.500000) rotate(-270.000000) translate(-234.500000, -341.500000) "></path>
        <g id="编组-3" transform="translate(142.000000, 201.000000)">
            <circle id="椭圆形备份" stroke="#FFFFFF" stroke-width="1.6" opacity="0.15" cx="243.2" cy="395.2" r="242.4"></circle>
            <g id="编组-9" transform="translate(0.000000, 65.600000)">
                <mask id="mask-2" fill="white">
                    <use xlink:href="#path-1"></use>
                </mask>
                <rect stroke="#2B2B2B" stroke-width="1.6" x="0.8" y="0.8" width="340.8" height="340.8"></rect>
                <circle id="椭圆形" stroke="#FFFFFF" stroke-width="1.6" mask="url(#mask-2)" cx="243.2" cy="329.6" r="242.4"></circle>
            </g>
            <rect id="矩形" stroke="#FFFFFF" stroke-width="1.6" x="2.8" y="0.8" width="139.2" height="139.2"></rect>
            <rect id="矩形" fill="#1178FD" x="0.8" y="65.6" width="142.4" height="75.2"></rect>
            <rect id="矩形" fill="#EE501F" x="37.6" y="33.6" width="69.6" height="69.6"></rect>
        </g>
        <g id="编组" transform="translate(339.000000, 201.000000)">
            <mask id="mask-4" fill="white">
                <use xlink:href="#path-3"></use>
            </mask>
            <use id="矩形" fill="#191919" xlink:href="#path-3"></use>
            <mask id="mask-6" fill="white">
                <use xlink:href="#path-5"></use>
            </mask>
            <use id="矩形备份" fill="#FFFFFF" xlink:href="#path-5"></use>
            <g id="编组-8" mask="url(#mask-6)">
                <g transform="translate(-196.800000, -616.000000)">
                    <path d="M180.487725,556.941082 C180.001962,567.500921 177.156818,576.827481 171.952209,584.921042 C166.747601,593.014603 159.44391,599.284413 150.040917,603.730661 C140.637924,608.176909 129.899242,610.4 117.82455,610.4 C97.9082474,610.4 82.2252618,603.904407 70.7751227,590.913026 C59.3249837,577.921645 53.6,559.581147 53.6,535.890982 L53.6,528.387976 C53.6,513.520834 56.1849169,500.51228 61.3548282,489.361924 C66.5247394,478.211567 73.9672182,469.597091 83.6824877,463.518236 C93.3977573,457.439382 104.639543,454.4 117.408183,454.4 C135.797801,454.4 150.578668,459.245643 161.751227,468.937074 C172.923787,478.628505 179.273315,491.984417 180.8,509.00521 L144.367921,509.00521 C144.090342,499.765351 141.765652,493.130815 137.393781,489.101403 C133.021909,485.071991 126.36011,483.057315 117.408183,483.057315 C108.317467,483.057315 101.655668,486.461422 97.4225859,493.269739 C93.1895042,500.078057 90.9689045,510.95036 90.7607201,525.886974 L90.7607201,536.620441 C90.7607201,552.807563 92.7904871,564.374581 96.8500818,571.321844 C100.909677,578.269106 107.901096,581.742685 117.82455,581.742685 C126.221319,581.742685 132.64024,579.762745 137.081506,575.802806 C141.522772,571.842866 143.882159,565.555645 144.159738,556.941082 L180.487725,556.941082 Z M258.666135,456 L295.2,456 L295.2,560.502439 C295.2,570.196074 292.955799,578.843503 288.467331,586.444986 C283.978862,594.04647 277.715976,599.939274 269.678486,604.123577 C261.640996,608.30788 252.68159,610.4 242.8,610.4 C226.237899,610.4 213.364189,606.21576 204.178486,597.847154 C194.992783,589.478549 190.4,577.623202 190.4,562.280759 L227.142629,562.280759 C227.142629,569.254597 228.343016,574.310553 230.743825,577.44878 C233.144634,580.587008 237.163347,582.156098 242.8,582.156098 C247.879972,582.156098 251.794276,580.255755 254.543028,576.455014 C257.29178,572.654272 258.666135,567.3368 258.666135,560.502439 L258.666135,456 Z M421.6,552.787661 C421.6,571.296065 417.765042,585.525057 410.09501,595.475064 C402.424978,605.425071 391.617368,610.4 377.671856,610.4 C366.166809,610.4 356.893182,605.842548 349.850699,596.727506 L348.386427,608.312596 L316.8,608.312596 L316.8,448 L352.047106,448 L352.047106,504.464267 C358.601497,497.019157 367.073268,493.296658 377.462675,493.296658 C391.547642,493.296658 402.424978,498.341166 410.09501,508.430334 C417.765042,518.519502 421.6,532.713705 421.6,551.013368 L421.6,552.787661 Z M385.6,550.289884 C385.6,539.389664 384.144765,531.616386 381.234251,526.969818 C378.323737,522.323249 373.852833,520 367.821407,520 C359.82626,520 354.285846,523.039439 351.2,529.118408 L351.2,574.186401 C354.215713,580.195497 359.826259,583.2 368.031804,583.2 C376.377616,583.2 381.672568,579.147415 383.91682,571.042123 C385.038945,567.05935 385.6,560.142006 385.6,550.289884 Z M504.972644,527.574592 L493.366565,526.738294 C482.283227,526.738294 475.173268,530.222833 472.036474,537.192015 L472.036474,608.8 L436.8,608.8 L436.8,495.690744 L469.840729,495.690744 L470.990881,510.221416 C476.915936,499.140416 485.176036,493.6 495.771429,493.6 C499.535581,493.6 502.811739,494.018145 505.6,494.854446 L504.972644,527.574592 Z M581.611245,608.318004 C580.358227,606.027796 579.244449,602.661935 578.26988,598.220321 C571.795952,606.340148 562.746511,610.4 551.121285,610.4 C540.470629,610.4 531.421189,607.190288 523.972691,600.770766 C516.524193,594.351245 512.8,586.28359 512.8,576.567558 C512.8,564.353118 517.32472,555.123026 526.374297,548.877005 C535.423874,542.630985 548.580369,539.508021 565.844177,539.508021 L576.703614,539.508021 L576.703614,533.574332 C576.703614,523.233698 572.2137,518.063458 563.233735,518.063458 C554.88028,518.063458 550.703614,522.15801 550.703614,530.347237 L515.514859,530.347237 C515.514859,519.451401 520.161399,510.603005 529.454618,503.801783 C538.747838,497.00056 550.599125,493.6 565.008835,493.6 C579.418546,493.6 590.799958,497.104659 599.153414,504.114082 C607.506869,511.123505 611.787951,520.735292 611.996787,532.949733 L611.996787,582.813547 C612.136011,593.154181 613.737066,601.065689 616.8,606.548307 L616.8,608.318004 L581.611245,608.318004 Z M559.562044,585.6 C563.976664,585.6 567.637942,584.662078 570.545985,582.786207 C573.454029,580.910335 575.53868,578.791327 576.8,576.429119 L576.8,558.4 L566.49927,558.4 C554.166362,558.4 548,563.888579 548,574.8659 C548,578.06183 549.086121,580.649799 551.258394,582.629885 C553.430668,584.609972 556.198523,585.6 559.562044,585.6 Z M663.328821,495.690744 L664.475077,508.966969 C672.255765,498.722272 682.988786,493.6 696.674462,493.6 C708.414965,493.6 717.185475,497.119384 722.986256,504.158258 C728.787038,511.197131 731.791589,521.790129 732,535.937568 L732,608.8 L696.778667,608.8 L696.778667,537.401089 C696.778667,531.68636 695.632422,527.487491 693.339897,524.804356 C691.047373,522.121221 686.87921,520.779673 680.835282,520.779673 C673.957709,520.779673 668.851709,523.497613 665.517128,528.933575 L665.517128,608.8 L630.4,608.8 L630.4,495.690744 L663.328821,495.690744 Z M747.2,551.013368 C747.2,533.131187 751.065963,519.041354 758.798006,508.743445 C766.530049,498.445535 777.326883,493.296658 791.188833,493.296658 C801.28925,493.296658 809.787403,497.262685 816.683549,505.194859 L816.683549,448 L852,448 L852,608.312596 L820.340578,608.312596 L818.564307,596.205656 C811.319871,605.668599 802.125147,610.4 790.97986,610.4 C777.535858,610.4 766.878338,605.251123 759.006979,594.953213 C751.13562,584.655304 747.2,570.008835 747.2,551.013368 Z M782.4,552.964784 C782.4,573.121695 788.273112,583.2 800.019512,583.2 C807.850446,583.2 813.443886,579.910553 816.8,573.331561 L816.8,530.078405 C813.583724,523.359435 808.060202,520 800.229268,520 C789.321897,520 783.413826,528.818516 782.504878,546.455814 L782.4,552.964784 Z M908.8,608 L873.6,608 L873.6,495.2 L908.8,495.2 L908.8,608 Z M871.2,466 C871.2,460.965828 873.016738,456.840666 876.650267,453.62439 C880.283797,450.408114 885.000328,448.8 890.8,448.8 C896.599672,448.8 901.316203,450.408114 904.949733,453.62439 C908.583262,456.840666 910.4,460.965828 910.4,466 C910.4,471.034172 908.583262,475.159334 904.949733,478.37561 C901.316203,481.591886 896.599672,483.2 890.8,483.2 C885.000328,483.2 880.283797,481.591886 876.650267,478.37561 C873.016738,475.159334 871.2,471.034172 871.2,466 Z M962.528821,495.690744 L963.675077,508.966969 C971.455765,498.722272 982.188786,493.6 995.874462,493.6 C1007.61496,493.6 1016.38548,497.119384 1022.18626,504.158258 C1027.98704,511.197131 1030.99159,521.790129 1031.2,535.937568 L1031.2,608.8 L995.978667,608.8 L995.978667,537.401089 C995.978667,531.68636 994.832422,527.487491 992.539897,524.804356 C990.247373,522.121221 986.07921,520.779673 980.035282,520.779673 C973.157709,520.779673 968.051709,523.497613 964.717128,528.933575 L964.717128,608.8 L929.6,608.8 L929.6,495.690744 L962.528821,495.690744 Z M1047.2,551.21623 C1047.2,539.824899 1049.08068,529.753447 1052.84211,521.001571 C1056.60353,512.249694 1062.00178,505.494875 1069.03704,500.736911 C1076.07229,495.978947 1084.25674,493.6 1093.59064,493.6 C1105.3625,493.6 1114.55695,497.559123 1121.17427,505.477487 L1122.42807,495.68377 L1154.4,495.68377 L1154.4,604.143979 C1154.4,614.076664 1152.08397,622.706857 1147.45185,630.034817 C1142.81973,637.362777 1136.11544,642.988898 1127.33879,646.913351 C1118.56214,650.837803 1108.39252,652.8 1096.82963,652.8 C1088.54057,652.8 1080.51284,651.237188 1072.7462,648.111518 C1064.97956,644.985848 1059.04148,640.922538 1054.93177,635.921466 L1069.66394,615.292147 C1076.2116,623.002133 1084.84881,626.857068 1095.57583,626.857068 C1111.17877,626.857068 1118.98012,618.869364 1118.98012,602.893717 L1118.98012,599.351309 C1112.22349,606.783458 1103.69076,610.499476 1093.38168,610.499476 C1079.58979,610.499476 1068.44501,605.238011 1059.94698,594.714921 C1051.44895,584.191832 1047.2,570.109163 1047.2,552.466492 L1047.2,551.21623 Z M1082.4,552.964784 C1082.4,562.273358 1084.15738,569.639619 1087.67221,575.063787 C1091.18703,580.487956 1096.1077,583.2 1102.43438,583.2 C1110.0967,583.2 1115.68518,580.64543 1119.2,575.536213 L1119.2,527.768771 C1115.75547,522.589564 1110.23729,520 1102.64527,520 C1096.31859,520 1091.36277,522.817026 1087.77765,528.451163 C1084.19253,534.085299 1082.4,542.256425 1082.4,552.964784 Z" id="CJbranding" fill="#333333" fill-rule="nonzero" opacity="0.04" transform="translate(604.000000, 550.400000) rotate(-270.000000) translate(-604.000000, -550.400000) "></path>
                    <path d="M10.887725,1172.94108 C10.4019616,1183.50092 7.55681817,1192.82748 2.35220949,1200.92104 C-2.85239918,1209.0146 -10.1560905,1215.28441 -19.5590835,1219.73066 C-28.9620765,1224.17691 -39.700758,1226.4 -51.7754501,1226.4 C-71.6917526,1226.4 -87.3747382,1219.90441 -98.8248773,1206.91303 C-110.275016,1193.92165 -116,1175.58115 -116,1151.89098 L-116,1144.38798 C-116,1129.52083 -113.415083,1116.51228 -108.245172,1105.36192 C-103.075261,1094.21157 -95.6327818,1085.59709 -85.9175123,1079.51824 C-76.2022427,1073.43938 -64.9604566,1070.4 -52.1918167,1070.4 C-33.8021994,1070.4 -19.0213325,1075.24564 -7.8487725,1084.93707 C3.32378745,1094.62851 9.67331479,1107.98442 11.2,1125.00521 L-25.2320786,1125.00521 C-25.5096577,1115.76535 -27.834348,1109.13082 -32.2062193,1105.1014 C-36.5780906,1101.07199 -43.2398898,1099.05731 -52.1918167,1099.05731 C-61.2825332,1099.05731 -67.9443324,1102.46142 -72.1774141,1109.26974 C-76.4104958,1116.07806 -78.6310955,1126.95036 -78.8392799,1141.88697 L-78.8392799,1152.62044 C-78.8392799,1168.80756 -76.8095129,1180.37458 -72.7499182,1187.32184 C-68.6903234,1194.26911 -61.698904,1197.74269 -51.7754501,1197.74269 C-43.3786814,1197.74269 -36.9597603,1195.76275 -32.5184943,1191.80281 C-28.0772282,1187.84287 -25.717841,1181.55564 -25.4402619,1172.94108 L10.887725,1172.94108 Z M89.0661355,1072 L125.6,1072 L125.6,1176.50244 C125.6,1186.19607 123.355799,1194.8435 118.867331,1202.44499 C114.378862,1210.04647 108.115976,1215.93927 100.078486,1220.12358 C92.0409957,1224.30788 83.0815899,1226.4 73.2,1226.4 C56.6378986,1226.4 43.7641894,1222.21576 34.5784861,1213.84715 C25.3927828,1205.47855 20.8,1193.6232 20.8,1178.28076 L57.5426295,1178.28076 C57.5426295,1185.2546 58.7430159,1190.31055 61.1438247,1193.44878 C63.5446335,1196.58701 67.5633466,1198.1561 73.2,1198.1561 C78.2799723,1198.1561 82.1942758,1196.25576 84.9430279,1192.45501 C87.69178,1188.65427 89.0661355,1183.3368 89.0661355,1176.50244 L89.0661355,1072 Z M252,1168.78766 C252,1187.29607 248.165042,1201.52506 240.49501,1211.47506 C232.824978,1221.42507 222.017368,1226.4 208.071856,1226.4 C196.566809,1226.4 187.293182,1221.84255 180.250699,1212.72751 L178.786427,1224.3126 L147.2,1224.3126 L147.2,1064 L182.447106,1064 L182.447106,1120.46427 C189.001497,1113.01916 197.473268,1109.29666 207.862675,1109.29666 C221.947642,1109.29666 232.824978,1114.34117 240.49501,1124.43033 C248.165042,1134.5195 252,1148.7137 252,1167.01337 L252,1168.78766 Z M216,1166.28988 C216,1155.38966 214.544765,1147.61639 211.634251,1142.96982 C208.723737,1138.32325 204.252833,1136 198.221407,1136 C190.22626,1136 184.685846,1139.03944 181.6,1145.11841 L181.6,1190.1864 C184.615713,1196.1955 190.226259,1199.2 198.431804,1199.2 C206.777616,1199.2 212.072568,1195.14741 214.31682,1187.04212 C215.438945,1183.05935 216,1176.14201 216,1166.28988 Z M335.372644,1143.57459 L323.766565,1142.73829 C312.683227,1142.73829 305.573268,1146.22283 302.436474,1153.19201 L302.436474,1224.8 L267.2,1224.8 L267.2,1111.69074 L300.240729,1111.69074 L301.390881,1126.22142 C307.315936,1115.14042 315.576036,1109.6 326.171429,1109.6 C329.935581,1109.6 333.211739,1110.01814 336,1110.85445 L335.372644,1143.57459 Z M412.011245,1224.318 C410.758227,1222.0278 409.644449,1218.66194 408.66988,1214.22032 C402.195952,1222.34015 393.146511,1226.4 381.521285,1226.4 C370.870629,1226.4 361.821189,1223.19029 354.372691,1216.77077 C346.924193,1210.35125 343.2,1202.28359 343.2,1192.56756 C343.2,1180.35312 347.72472,1171.12303 356.774297,1164.87701 C365.823874,1158.63098 378.980369,1155.50802 396.244177,1155.50802 L407.103614,1155.50802 L407.103614,1149.57433 C407.103614,1139.2337 402.6137,1134.06346 393.633735,1134.06346 C385.28028,1134.06346 381.103614,1138.15801 381.103614,1146.34724 L345.914859,1146.34724 C345.914859,1135.4514 350.561399,1126.603 359.854618,1119.80178 C369.147838,1113.00056 380.999125,1109.6 395.408835,1109.6 C409.818546,1109.6 421.199958,1113.10466 429.553414,1120.11408 C437.906869,1127.12351 442.187951,1136.73529 442.396787,1148.94973 L442.396787,1198.81355 C442.536011,1209.15418 444.137066,1217.06569 447.2,1222.54831 L447.2,1224.318 L412.011245,1224.318 Z M389.962044,1201.6 C394.376664,1201.6 398.037942,1200.66208 400.945985,1198.78621 C403.854029,1196.91034 405.93868,1194.79133 407.2,1192.42912 L407.2,1174.4 L396.89927,1174.4 C384.566362,1174.4 378.4,1179.88858 378.4,1190.8659 C378.4,1194.06183 379.486121,1196.6498 381.658394,1198.62989 C383.830668,1200.60997 386.598523,1201.6 389.962044,1201.6 Z M493.728821,1111.69074 L494.875077,1124.96697 C502.655765,1114.72227 513.388786,1109.6 527.074462,1109.6 C538.814965,1109.6 547.585475,1113.11938 553.386256,1120.15826 C559.187038,1127.19713 562.191589,1137.79013 562.4,1151.93757 L562.4,1224.8 L527.178667,1224.8 L527.178667,1153.40109 C527.178667,1147.68636 526.032422,1143.48749 523.739897,1140.80436 C521.447373,1138.12122 517.27921,1136.77967 511.235282,1136.77967 C504.357709,1136.77967 499.251709,1139.49761 495.917128,1144.93358 L495.917128,1224.8 L460.8,1224.8 L460.8,1111.69074 L493.728821,1111.69074 Z M577.6,1167.01337 C577.6,1149.13119 581.465963,1135.04135 589.198006,1124.74344 C596.930049,1114.44554 607.726883,1109.29666 621.588833,1109.29666 C631.68925,1109.29666 640.187403,1113.26269 647.083549,1121.19486 L647.083549,1064 L682.4,1064 L682.4,1224.3126 L650.740578,1224.3126 L648.964307,1212.20566 C641.719871,1221.6686 632.525147,1226.4 621.37986,1226.4 C607.935858,1226.4 597.278338,1221.25112 589.406979,1210.95321 C581.53562,1200.6553 577.6,1186.00884 577.6,1167.01337 Z M612.8,1168.96478 C612.8,1189.1217 618.673112,1199.2 630.419512,1199.2 C638.250446,1199.2 643.843886,1195.91055 647.2,1189.33156 L647.2,1146.07841 C643.983724,1139.35943 638.460202,1136 630.629268,1136 C619.721897,1136 613.813826,1144.81852 612.904878,1162.45581 L612.8,1168.96478 Z M739.2,1224 L704,1224 L704,1111.2 L739.2,1111.2 L739.2,1224 Z M701.6,1082 C701.6,1076.96583 703.416738,1072.84067 707.050267,1069.62439 C710.683797,1066.40811 715.400328,1064.8 721.2,1064.8 C726.999672,1064.8 731.716203,1066.40811 735.349733,1069.62439 C738.983262,1072.84067 740.8,1076.96583 740.8,1082 C740.8,1087.03417 738.983262,1091.15933 735.349733,1094.37561 C731.716203,1097.59189 726.999672,1099.2 721.2,1099.2 C715.400328,1099.2 710.683797,1097.59189 707.050267,1094.37561 C703.416738,1091.15933 701.6,1087.03417 701.6,1082 Z M792.928821,1111.69074 L794.075077,1124.96697 C801.855765,1114.72227 812.588786,1109.6 826.274462,1109.6 C838.014965,1109.6 846.785475,1113.11938 852.586256,1120.15826 C858.387038,1127.19713 861.391589,1137.79013 861.6,1151.93757 L861.6,1224.8 L826.378667,1224.8 L826.378667,1153.40109 C826.378667,1147.68636 825.232422,1143.48749 822.939897,1140.80436 C820.647373,1138.12122 816.47921,1136.77967 810.435282,1136.77967 C803.557709,1136.77967 798.451709,1139.49761 795.117128,1144.93358 L795.117128,1224.8 L760,1224.8 L760,1111.69074 L792.928821,1111.69074 Z M877.6,1167.21623 C877.6,1155.8249 879.480683,1145.75345 883.242105,1137.00157 C887.003528,1128.24969 892.401784,1121.49488 899.437037,1116.73691 C906.47229,1111.97895 914.656743,1109.6 923.990643,1109.6 C935.762502,1109.6 944.956952,1113.55912 951.574269,1121.47749 L952.82807,1111.68377 L984.8,1111.68377 L984.8,1220.14398 C984.8,1230.07666 982.483974,1238.70686 977.851852,1246.03482 C973.21973,1253.36278 966.515443,1258.9889 957.738791,1262.91335 C948.962139,1266.8378 938.79252,1268.8 927.22963,1268.8 C918.940569,1268.8 910.912839,1267.23719 903.146199,1264.11152 C895.379558,1260.98585 889.441476,1256.92254 885.331774,1251.92147 L900.063938,1231.29215 C906.611599,1239.00213 915.248809,1242.85707 925.975828,1242.85707 C941.578765,1242.85707 949.380117,1234.86936 949.380117,1218.89372 L949.380117,1215.35131 C942.623488,1222.78346 934.09076,1226.49948 923.781676,1226.49948 C909.989795,1226.49948 898.845007,1221.23801 890.346979,1210.71492 C881.84895,1200.19183 877.6,1186.10916 877.6,1168.46649 L877.6,1167.21623 Z M912.8,1168.96478 C912.8,1178.27336 914.557385,1185.63962 918.072206,1191.06379 C921.587028,1196.48796 926.507705,1199.2 932.834384,1199.2 C940.496695,1199.2 946.085178,1196.64543 949.6,1191.53621 L949.6,1143.76877 C946.155475,1138.58956 940.637287,1136 933.045272,1136 C926.718593,1136 921.762769,1138.81703 918.17765,1144.45116 C914.592532,1150.0853 912.8,1158.25642 912.8,1168.96478 Z" id="CJbranding备份" fill="#333333" fill-rule="nonzero" opacity="0.04" transform="translate(434.400000, 1166.400000) rotate(-270.000000) translate(-434.400000, -1166.400000) "></path>
                    <rect id="矩形" fill="#1178FD" fill-rule="evenodd" x="0" y="655.2" width="342.4" height="342.4"></rect>
                    <circle id="椭圆形" fill="#ECDC34" fill-rule="evenodd" cx="450.4" cy="731.2" r="76"></circle>
                    <circle id="椭圆形" fill="#EE501F" fill-rule="evenodd" cx="243.2" cy="1011.2" r="242.4"></circle>
                    <g id="编组-2" stroke-width="1" fill="none" fill-rule="evenodd" transform="translate(283.200000, 840.000000)">
                        <circle id="椭圆形" fill="#FFFFFF" cx="51.2" cy="51.2" r="51.2"></circle>
                    </g>
                </g>
            </g>
        </g>
        <polygon id="矩形" fill="#E84226" points="1171 102 1301 102 1171 232"></polygon>
    </g>
</svg>