<?xml version="1.0" encoding="UTF-8"?>
<svg width="98px" height="98px" viewBox="0 0 98 98" version="1.1" xmlns="http://www.w3.org/2000/svg" xmlns:xlink="http://www.w3.org/1999/xlink">
    <!-- Generator: Sketch 56.2 (81672) - https://sketch.com -->
    <title>编组 4备份</title>
    <desc>Created with Sketch.</desc>
    <g id="页面1" stroke="none" stroke-width="1" fill="none" fill-rule="evenodd">
        <g id="Apple-TV" transform="translate(-924.000000, -808.000000)">
            <g id="编组-4备份" transform="translate(924.000000, 808.000000)">
                <rect id="矩形备份" fill="#151515" x="0" y="0" width="98" height="98" rx="16"></rect>
                <g id="logo1备份" transform="translate(13.000000, 10.000000)" fill-rule="nonzero">
                    <g id="XMLID_335_" transform="translate(6.000000, 63.000000)" fill="#FFFFFF">
                        <path d="M4.9,0.2 C6,0.2 6.8,0.5 7.4,1 C8,1.5 8.2,2.1 8.2,2.9 C8.2,3.5 8,4 7.8,4.4 C7.5,4.8 7.1,5.1 6.6,5.3 C7.3,5.4 7.8,5.7 8.2,6.2 C8.5,6.6 8.7,7.2 8.7,7.9 C8.7,9 8.3,9.8 7.6,10.3 C7,10.7 6.1,10.9 4.9,10.9 L-3.55271368e-14,10.9 L-3.55271368e-14,0.2 L4.9,0.2 Z M1.8,4.7 L4.5,4.7 C5.3,4.7 5.8,4.6 6.1,4.3 C6.4,4 6.6,3.6 6.6,3.1 C6.6,2.6 6.4,2.2 6.1,2 C5.8,1.8 5.3,1.6 4.5,1.6 L1.8,1.6 L1.8,4.7 Z M1.8,9.5 L4.7,9.5 C5.4,9.5 5.9,9.4 6.3,9.2 C6.8,8.9 7,8.5 7,7.9 C7,7.3 6.8,6.9 6.5,6.6 C6.1,6.3 5.6,6.2 4.8,6.2 L1.8,6.2 L1.8,9.5 Z" id="XMLID_343_"></path>
                        <path d="M14.8,3.1 L14.8,4.8 C14.4,4.7 14,4.6 13.7,4.6 C13.2,4.6 12.8,4.8 12.5,5.1 C12.1,5.5 11.9,6 11.9,6.7 L11.9,10.8 L10.2,10.8 L10.2,3 L11.9,3 L11.9,4 C12.1,3.6 12.4,3.5 12.6,3.2 C12.9,2.9 13.4,2.8 13.8,2.8 C14.2,2.9 14.6,3 14.8,3.1 Z" id="XMLID_347_"></path>
                        <path d="M21.9,3.8 C22.4,4.3 22.6,5 22.6,6 L22.6,10.9 L21,10.9 L21,9.9 C20.7,10.3 20.3,10.6 19.9,10.8 C19.4,11 18.8,11.1 18.1,11.1 C17.3,11.1 16.7,10.9 16.2,10.5 C15.7,10.1 15.5,9.6 15.5,8.9 C15.5,8 15.8,7.4 16.5,6.9 C17.1,6.5 18,6.2 19.2,6.2 L20.9,6.2 L20.9,5.9 C20.9,4.9 20.3,4.4 19.2,4.4 C18.7,4.4 18.3,4.5 18.1,4.7 C17.8,4.9 17.5,5.2 17.5,5.6 L15.8,5.5 C16,4.6 16.4,4 17.1,3.6 C17.7,3.2 18.4,3.1 19.4,3.1 C20.5,2.9 21.3,3.2 21.9,3.8 Z M19.3,7.4 C17.9,7.4 17.3,7.9 17.3,8.8 C17.3,9.1 17.4,9.3 17.6,9.5 C17.8,9.7 18.1,9.8 18.5,9.8 C19.2,9.8 19.7,9.6 20.2,9.2 C20.6,8.8 20.9,8.3 20.9,7.7 L20.9,7.3 L19.3,7.4 Z" id="XMLID_349_"></path>
                        <path d="M31.3,6.1 L31.3,10.9 L29.6,10.9 L29.6,6.3 C29.6,5 29,4.4 27.8,4.4 C27.4,4.4 27,4.5 26.7,4.8 C26.3,5.1 26.1,5.6 26.1,6.2 L26.1,10.9 L24.4,10.9 L24.4,3.1 L26.1,3.1 L26.1,3.9 C26.4,3.5 26.7,3.4 27.1,3.2 C27.5,3 27.9,2.9 28.4,2.9 C30.3,2.9 31.3,4 31.3,6.1 Z" id="XMLID_352_"></path>
                        <path d="M40.3,3.99680289e-14 L40.3,10.9 L38.7,10.9 L38.7,10.2 C38.2,10.9 37.4,11.1 36.4,11.1 C35.2,11.1 34.3,10.7 33.7,9.9 C33.1,9.1 32.8,8.2 32.8,7 C32.8,5.9 33.1,4.9 33.7,4.2 C34.3,3.4 35.2,3 36.3,3 C37.2,3 38,3.3 38.6,4.1 L38.6,3.99680289e-14 L40.3,3.99680289e-14 L40.3,3.99680289e-14 Z M35,5.1 C34.7,5.5 34.5,6.2 34.5,7 C34.5,7.8 34.6,8.5 34.9,8.9 C35.2,9.4 35.8,9.7 36.6,9.7 C37.3,9.7 37.8,9.4 38.1,8.9 C38.4,8.4 38.6,7.8 38.6,7 L38.6,6.9 C38.6,6.1 38.4,5.4 38,4.9 C37.6,4.4 37.2,4.2 36.6,4.2 C35.9,4.3 35.4,4.6 35,5.1 Z" id="XMLID_354_"></path>
                        <path d="M44.1,0.3 C44.3,0.5 44.4,0.8 44.4,1.1 C44.4,1.4 44.3,1.7 44.1,1.9 C43.9,2.1 43.6,2.2 43.3,2.2 C43,2.2 42.7,2.1 42.5,1.9 C42.3,1.7 42.2,1.4 42.2,1.1 C42.2,0.8 42.3,0.5 42.5,0.3 C42.7,0.1 43,5.06261699e-14 43.3,5.06261699e-14 C43.6,5.06261699e-14 43.9,0.1 44.1,0.3 Z M44.1,3.1 L44.1,10.9 L42.4,10.9 L42.4,3.1 L44.1,3.1 Z" id="XMLID_357_"></path>
                        <path d="M53.2,6.1 L53.2,10.9 L51.5,10.9 L51.5,6.3 C51.5,5 50.9,4.4 49.7,4.4 C49.3,4.4 48.9,4.5 48.6,4.8 C48.2,5.1 48,5.6 48,6.2 L48,10.9 L46.3,10.9 L46.3,3.1 L48,3.1 L48,3.9 C48.3,3.5 48.6,3.4 49,3.2 C49.4,3 49.8,2.9 50.3,2.9 C52.2,2.9 53.2,4 53.2,6.1 Z" id="XMLID_360_"></path>
                        <path d="M60.5,4 L60.5,3.2 L62.2,3.2 L62.2,10.5 C62.2,12.9 61,14.2 58.6,14.2 C57.5,14.2 56.7,14 56.1,13.6 C55.5,13.2 55.2,12.5 55,11.7 L56.7,11.7 C56.8,12.1 57,12.4 57.3,12.6 C57.6,12.8 58,12.9 58.6,12.9 C59.9,12.9 60.5,12.2 60.5,10.8 L60.5,9.8 C59.9,10.6 59.2,10.9 58.2,10.9 C57.2,10.9 56.3,10.5 55.7,9.9 C55,9.2 54.7,8.3 54.7,7.1 C54.7,5.9 55,5 55.7,4.3 C56.3,3.6 57.2,3.2 58.2,3.2 C59.2,2.9 59.9,3.2 60.5,4 Z M57,5 C56.6,5.4 56.5,6 56.5,6.9 C56.5,7.6 56.6,8.2 56.9,8.6 C57.2,9.1 57.8,9.4 58.5,9.4 C59.2,9.4 59.7,9.2 60,8.8 C60.3,8.3 60.5,7.7 60.5,7 C60.5,6.2 60.3,5.6 60,5.1 C59.6,4.6 59.1,4.4 58.5,4.4 C57.8,4.3 57.3,4.5 57,5 Z" id="XMLID_362_"></path>
                    </g>
                    <g id="XMLID_238_" transform="translate(17.000000, 0.000000)">
                        <path d="M19.6,6.9 C23.1,6.9 26.1,9.8 26.1,13.3 L26.1,18.3 L32.1,18.3 L32.1,13.3 C32.1,6.5 26.4,0.9 19.6,0.9 C12.8,0.9 7.1,6.4 7.1,13.3 L7.1,19.9 L13.1,25.9 L13.1,13.2 C13.1,9.7 16.1,6.9 19.6,6.9 Z" id="XMLID_242_" fill="#0083EC"></path>
                        <path d="M41.4,39.8 C41.4,28.9 32.6,20 21.7,20 C20.1,20 19.1,20.2 17.1,20.6 L17.1,26.8 C19.1,26.3 20.1,25.9 21.7,25.9 C29.4,25.9 35.6,32.1 35.6,39.8 C35.6,42.3 34.9,44.7 33.7,46.7 L38,51 C40.2,47.8 41.4,44 41.4,39.8 Z" id="XMLID_240_" fill="#F25B35"></path>
                        <path d="M33.7,46.7 C31.3,50.9 26.9,53.9 21.7,53.9 C17,53.9 12.9,51.2 10.4,48.2 L3.7,48.2 C6.8,54.2 13.7,59.8 21.8,59.8 C28.6,59.8 34.5,56.3 38,51.1 L33.7,46.7 Z" id="XMLID_239_" fill="#0D3DD8"></path>
                        <polygon id="XMLID_241_" fill="#F3E24A" points="7.1 37.6 0.1 37.7 0 43.6 20.1 43.5 20.2 37.5 13.1 37.6 13.1 25.7 7.1 19.8"></polygon>
                    </g>
                </g>
            </g>
        </g>
    </g>
</svg>