<?xml version="1.0" encoding="UTF-8"?>
<svg width="111px" height="59px" viewBox="0 0 111 59" version="1.1" xmlns="http://www.w3.org/2000/svg" xmlns:xlink="http://www.w3.org/1999/xlink">
    <!-- Generator: Sketch 56.2 (81672) - https://sketch.com -->
    <title>logo22_复制</title>
    <desc>Created with Sketch.</desc>
    <g id="页面1" stroke="none" stroke-width="1" fill="none" fill-rule="evenodd">
        <g id="我的包装备份" transform="translate(-362.000000, -16.000000)" fill-rule="nonzero">
            <g id="编组-5" transform="translate(362.000000, 16.000000)">
                <g id="logo22_复制">
                    <g id="XMLID_335_" transform="translate(48.000000, 44.000000)" fill="#010101">
                        <path d="M5.6,0.6 C6.7,0.6 7.5,0.9 8.1,1.4 C8.7,1.9 8.9,2.5 8.9,3.3 C8.9,3.9 8.7,4.4 8.5,4.8 C8.2,5.2 7.8,5.5 7.3,5.7 C8,5.8 8.5,6.1 8.9,6.6 C9.2,7 9.4,7.6 9.4,8.3 C9.4,9.4 9,10.2 8.3,10.7 C7.7,11.1 6.8,11.3 5.6,11.3 L0.7,11.3 L0.7,0.6 L5.6,0.6 Z M2.5,5.1 L5.2,5.1 C6,5.1 6.5,5 6.8,4.7 C7.1,4.4 7.3,4 7.3,3.5 C7.3,3 7.1,2.6 6.8,2.4 C6.5,2.2 6,2 5.2,2 L2.5,2 L2.5,5.1 Z M2.5,9.9 L5.4,9.9 C6.1,9.9 6.6,9.8 7,9.6 C7.5,9.3 7.7,8.9 7.7,8.3 C7.7,7.7 7.5,7.3 7.2,7 C6.8,6.7 6.3,6.6 5.5,6.6 L2.5,6.6 L2.5,9.9 Z" id="XMLID_343_"></path>
                        <path d="M15.5,3.5 L15.5,5.2 C15.1,5.1 14.7,5 14.4,5 C13.9,5 13.5,5.2 13.2,5.5 C12.8,5.9 12.6,6.4 12.6,7.1 L12.6,11.2 L10.9,11.2 L10.9,3.4 L12.6,3.4 L12.6,4.4 C12.8,4 13.1,3.9 13.3,3.6 C13.6,3.3 14.1,3.2 14.5,3.2 C14.9,3.3 15.3,3.4 15.5,3.5 Z" id="XMLID_347_"></path>
                        <path d="M22.6,4.2 C23.1,4.7 23.3,5.4 23.3,6.4 L23.3,11.3 L21.7,11.3 L21.7,10.3 C21.4,10.7 21,11 20.6,11.2 C20.1,11.4 19.5,11.5 18.8,11.5 C18,11.5 17.4,11.3 16.9,10.9 C16.4,10.5 16.2,10 16.2,9.3 C16.2,8.4 16.5,7.8 17.2,7.3 C17.8,6.9 18.7,6.6 19.9,6.6 L21.6,6.6 L21.6,6.3 C21.6,5.3 21,4.8 19.9,4.8 C19.4,4.8 19,4.9 18.8,5.1 C18.5,5.3 18.2,5.6 18.2,6 L16.5,5.9 C16.7,5 17.1,4.4 17.8,4 C18.4,3.6 19.1,3.5 20.1,3.5 C21.2,3.3 22,3.6 22.6,4.2 Z M20,7.8 C18.6,7.8 18,8.3 18,9.2 C18,9.5 18.1,9.7 18.3,9.9 C18.5,10.1 18.8,10.2 19.2,10.2 C19.9,10.2 20.4,10 20.9,9.6 C21.3,9.2 21.6,8.7 21.6,8.1 L21.6,7.7 L20,7.8 Z" id="XMLID_349_"></path>
                        <path d="M32,6.5 L32,11.3 L30.3,11.3 L30.3,6.7 C30.3,5.4 29.7,4.8 28.5,4.8 C28.1,4.8 27.7,4.9 27.4,5.2 C27,5.5 26.8,6 26.8,6.6 L26.8,11.3 L25.1,11.3 L25.1,3.5 L26.8,3.5 L26.8,4.3 C27.1,3.9 27.4,3.8 27.8,3.6 C28.2,3.4 28.6,3.3 29.1,3.3 C31,3.3 32,4.4 32,6.5 Z" id="XMLID_352_"></path>
                        <path d="M41,0.4 L41,11.3 L39.4,11.3 L39.4,10.6 C38.9,11.3 38.1,11.5 37.1,11.5 C35.9,11.5 35,11.1 34.4,10.3 C33.8,9.5 33.5,8.6 33.5,7.4 C33.5,6.3 33.8,5.3 34.4,4.6 C35,3.8 35.9,3.4 37,3.4 C37.9,3.4 38.7,3.7 39.3,4.5 L39.3,0.4 L41,0.4 L41,0.4 Z M35.7,5.5 C35.4,5.9 35.2,6.6 35.2,7.4 C35.2,8.2 35.3,8.9 35.6,9.3 C35.9,9.8 36.5,10.1 37.3,10.1 C38,10.1 38.5,9.8 38.8,9.3 C39.1,8.8 39.3,8.2 39.3,7.4 L39.3,7.3 C39.3,6.5 39.1,5.8 38.7,5.3 C38.3,4.8 37.9,4.6 37.3,4.6 C36.6,4.7 36.1,5 35.7,5.5 Z" id="XMLID_354_"></path>
                        <path d="M44.8,0.7 C45,0.9 45.1,1.2 45.1,1.5 C45.1,1.8 45,2.1 44.8,2.3 C44.6,2.5 44.3,2.6 44,2.6 C43.7,2.6 43.4,2.5 43.2,2.3 C43,2.1 42.9,1.8 42.9,1.5 C42.9,1.2 43,0.9 43.2,0.7 C43.4,0.5 43.7,0.4 44,0.4 C44.3,0.4 44.6,0.5 44.8,0.7 Z M44.8,3.5 L44.8,11.3 L43.1,11.3 L43.1,3.5 L44.8,3.5 Z" id="XMLID_357_"></path>
                        <path d="M53.9,6.5 L53.9,11.3 L52.2,11.3 L52.2,6.7 C52.2,5.4 51.6,4.8 50.4,4.8 C50,4.8 49.6,4.9 49.3,5.2 C48.9,5.5 48.7,6 48.7,6.6 L48.7,11.3 L47,11.3 L47,3.5 L48.7,3.5 L48.7,4.3 C49,3.9 49.3,3.8 49.7,3.6 C50.1,3.4 50.5,3.3 51,3.3 C52.9,3.3 53.9,4.4 53.9,6.5 Z" id="XMLID_360_"></path>
                        <path d="M61.2,4.4 L61.2,3.6 L62.9,3.6 L62.9,10.9 C62.9,13.3 61.7,14.6 59.3,14.6 C58.2,14.6 57.4,14.4 56.8,14 C56.2,13.6 55.9,12.9 55.7,12.1 L57.4,12.1 C57.5,12.5 57.7,12.8 58,13 C58.3,13.2 58.7,13.3 59.3,13.3 C60.6,13.3 61.2,12.6 61.2,11.2 L61.2,10.2 C60.6,11 59.9,11.3 58.9,11.3 C57.9,11.3 57,10.9 56.4,10.3 C55.7,9.6 55.4,8.7 55.4,7.5 C55.4,6.3 55.7,5.4 56.4,4.7 C57,4 57.9,3.6 58.9,3.6 C59.9,3.3 60.6,3.6 61.2,4.4 Z M57.7,5.4 C57.3,5.8 57.2,6.4 57.2,7.3 C57.2,8 57.3,8.6 57.6,9 C57.9,9.5 58.5,9.8 59.2,9.8 C59.9,9.8 60.4,9.6 60.7,9.2 C61,8.7 61.2,8.1 61.2,7.4 C61.2,6.6 61,6 60.7,5.5 C60.3,5 59.8,4.8 59.2,4.8 C58.5,4.7 58,4.9 57.7,5.4 Z" id="XMLID_362_"></path>
                    </g>
                    <g id="XMLID_341_" transform="translate(48.000000, 28.000000)" fill="#010101">
                        <path d="M8.5,1.5 C9.3,2.1 9.7,3 9.9,4.1 L8.2,4.1 C8,3.4 7.7,2.9 7.2,2.6 C6.7,2.3 6.1,2.1 5.4,2.1 C4.3,2.1 3.4,2.5 2.9,3.3 C2.4,4 2.1,4.9 2.1,6.2 C2.1,7.5 2.4,8.4 2.9,9.1 C3.5,9.8 4.3,10.2 5.5,10.2 C6.3,10.2 6.9,10 7.4,9.6 C7.9,9.2 8.3,8.6 8.5,7.8 L10,7.8 C9.8,9.1 9.2,10 8.3,10.7 C7.5,11.4 6.5,11.7 5.3,11.7 C3.5,11.7 2.2,11.1 1.3,10 C0.5,9 0.2,7.8 0.2,6.1 C0.2,4.5 0.6,3.2 1.4,2.2 C2.3,1.1 3.6,0.5 5.3,0.5 C6.6,0.5 7.7,0.8 8.5,1.5 Z" id="XMLID_365_"></path>
                        <path d="M17.6,0.7 L17.6,8 C17.6,9.2 17.3,10.1 16.8,10.7 C16.2,11.3 15.3,11.6 14.1,11.6 C13,11.6 12.2,11.3 11.6,10.7 C11,10.1 10.7,9.3 10.7,8.2 L10.7,7.1 L12.5,7.1 L12.5,8.1 C12.5,9.3 13,9.9 14.1,9.9 C14.7,9.9 15.1,9.7 15.4,9.4 C15.7,9.1 15.8,8.5 15.8,7.7 L15.8,0.5 L17.6,0.5 L17.6,0.7 Z" id="XMLID_367_"></path>
                    </g>
                    <g id="XMLID_336_">
                        <path d="M19.3,6 C22.8,6 25.8,8.9 25.8,12.4 L25.8,16.6 L31.8,16.6 L31.8,12.4 C31.8,5.5 26.1,0 19.3,0 C12.4,0 6.8,5.5 6.8,12.4 L6.8,19 L12.8,25 L12.8,12.4 C12.8,8.9 15.7,6 19.3,6 Z" id="XMLID_340_" fill="#332815"></path>
                        <path d="M41.6,39 C41.6,28.1 32.6,19.2 21.6,19.2 C20,19.2 18.7,19.4 16.7,19.8 L16.7,26 C18.7,25.5 19.9,25.1 21.6,25.1 C29.3,25.1 35.6,31.3 35.6,39 C35.6,41.5 34.9,43.9 33.8,45.9 L38.1,50.2 C40.3,47 41.6,43.1 41.6,39 Z" id="XMLID_339_" fill="#F25B35"></path>
                        <path d="M33.9,45.9 C31.5,50.1 27.1,52.7 21.9,52.7 C17.2,52.7 13.1,49.6 10.6,46.6 L3.8,46.6 C6.9,52.6 13.8,58.6 21.9,58.6 C28.7,58.6 34.6,55.3 38.1,50.1 L33.9,45.9 Z" id="XMLID_338_" fill="#0D3DD8"></path>
                        <polygon id="XMLID_337_" fill="#F3E24A" points="6.8 36.8 0 36.8 0.1 42.8 20.2 42.7 20.1 36.7 12.8 36.7 12.8 24.9 6.8 18.9"></polygon>
                    </g>
                </g>
            </g>
        </g>
    </g>
</svg>